<svg width="100" height="100"><rect width="100" height="100" fill="#000000" /><rect fill="#ffffff" opacity="0.5" x="74" y="46" width="9" height="12" /><rect fill="#ffffff" opacity="0.5" x="46" y="66" width="4" height="7" /><rect fill="#ffffff" opacity="0.5" x="38" y="54" width="13" height="5" /><rect fill="#ffffff" opacity="0.5" x="54" y="46" width="6" height="9" /><rect fill="#ffffff" opacity="0.5" x="54" y="70" width="10" height="11" /><rect fill="#ffffff" opacity="0.5" x="46" y="58" width="11" height="4" /><rect fill="#ffffff" opacity="0.5" x="54" y="26" width="14" height="12" /><rect fill="#ffffff" opacity="0.5" x="42" y="62" width="13" height="11" /><rect fill="#ffffff" opacity="0.5" x="62" y="58" width="14" height="10" /><rect fill="#ffffff" opacity="0.5" x="38" y="42" width="7" height="5" /><rect fill="#ffffff" opacity="0.5" x="46" y="30" width="12" height="10" /><rect fill="#ffffff" opacity="0.5" x="50" y="62" width="7" height="4" /><rect fill="#ffffff" opacity="0.5" x="70" y="58" width="11" height="13" /><rect fill="#ffffff" opacity="0.5" x="54" y="38" width="12" height="6" /><rect fill="#ffffff" opacity="0.5" x="42" y="50" width="9" height="4" /><rect fill="#ffffff" opacity="0.5" x="30" y="62" width="5" height="6" /><rect fill="#ffffff" opacity="0.5" x="50" y="58" width="4" height="11" /><rect fill="#ffffff" opacity="0.5" x="34" y="42" width="5" height="13" /><rect fill="#ffffff" opacity="0.5" x="62" y="54" width="7" height="13" /><rect fill="#ffffff" opacity="0.5" x="62" y="62" width="13" height="10" /></svg>