<svg width="100" height="100"><rect width="100" height="100" fill="#000000" /><rect fill="#ff0000" opacity="0.5" x="81.03161310699511" y="40.84137873984457" width="9" height="12" /><rect fill="#ff0000" opacity="0.5" x="53.86188117165206" y="81.89660621571028" width="10" height="11" /><rect fill="#ff0000" opacity="0.5" x="62.92896352573195" y="16.033607661435575" width="14" height="12" /><rect fill="#ff0000" opacity="0.5" x="40.74626450649342" y="60.585305870225596" width="13" height="11" /><rect fill="#ff0000" opacity="0.5" x="63.4799595136809" y="61.08606027983619" width="14" height="10" /><rect fill="#ff0000" opacity="0.5" x="43.83830103732213" y="23.778062699704993" width="12" height="10" /><rect fill="#ff0000" opacity="0.5" x="79.66810966562934" y="60.45384007007371" width="11" height="13" /><rect fill="#ff0000" opacity="0.5" x="64.04704321372441" y="75.38141845012966" width="13" height="10" /><line x1="70.47995951368091" y1= "66.08606027983619" x2="70.54704321372441" y2="80.38141845012966" style="stroke:#00ff00;stroke-width:1" /><line x1="70.54704321372441" y1= "80.38141845012966" x2="85.16810966562933" y2="66.95384007007371" style="stroke:#00ff00;stroke-width:1" /><line x1="85.16810966562933" y1= "66.95384007007371" x2="49.83830103732213" y2="28.778062699704996" style="stroke:#00ff00;stroke-width:1" /><line x1="49.83830103732213" y1= "28.778062699704996" x2="70.47995951368091" y2="66.08606027983619" style="stroke:#00ff00;stroke-width:1" /><line x1="70.47995951368091" y1= "66.08606027983619" x2="85.53161310699511" y2="46.84137873984457" style="stroke:#00ff00;stroke-width:1" /><line x1="85.53161310699511" y1= "46.84137873984457" x2="69.92896352573194" y2="22.033607661435575" style="stroke:#00ff00;stroke-width:1" /><line x1="69.92896352573194" y1= "22.033607661435575" x2="49.83830103732213" y2="28.778062699704996" style="stroke:#00ff00;stroke-width:1" /><line x1="49.83830103732213" y1= "28.778062699704996" x2="85.53161310699511" y2="46.84137873984457" style="stroke:#00ff00;stroke-width:1" /><line x1="85.53161310699511" y1= "46.84137873984457" x2="70.47995951368091" y2="66.08606027983619" style="stroke:#00ff00;stroke-width:1" /><line x1="70.47995951368091" y1= "66.08606027983619" x2="85.16810966562933" y2="66.95384007007371" style="stroke:#00ff00;stroke-width:1" /><line x1="85.16810966562933" y1= "66.95384007007371" x2="85.53161310699511" y2="46.84137873984457" style="stroke:#00ff00;stroke-width:1" /><line x1="85.53161310699511" y1= "46.84137873984457" x2="49.83830103732213" y2="28.778062699704996" style="stroke:#00ff00;stroke-width:1" /><line x1="49.83830103732213" y1= "28.778062699704996" x2="47.24626450649342" y2="66.0853058702256" style="stroke:#00ff00;stroke-width:1" /><line x1="47.24626450649342" y1= "66.0853058702256" x2="70.47995951368091" y2="66.08606027983619" style="stroke:#00ff00;stroke-width:1" /><line x1="70.47995951368091" y1= "66.08606027983619" x2="70.47995951368091" y2="66.08606027983619" style="stroke:#00ff00;stroke-width:1" /><line x1="70.47995951368091" y1= "66.08606027983619" x2="47.24626450649342" y2="66.0853058702256" style="stroke:#00ff00;stroke-width:1" /><line x1="47.24626450649342" y1= "66.0853058702256" x2="70.54704321372441" y2="80.38141845012966" style="stroke:#00ff00;stroke-width:1" /><line x1="70.54704321372441" y1= "80.38141845012966" x2="47.24626450649342" y2="66.0853058702256" style="stroke:#00ff00;stroke-width:1" /><line x1="47.24626450649342" y1= "66.0853058702256" x2="58.86188117165206" y2="87.39660621571028" style="stroke:#00ff00;stroke-width:1" /><line x1="58.86188117165206" y1= "87.39660621571028" x2="70.54704321372441" y2="80.38141845012966" style="stroke:#00ff00;stroke-width:1" /></svg>