<svg width="100" height="100"><rect width="100" height="100" fill="#000000" /><rect fill="#ffffff" opacity="0.5" x="58" y="47" width="8" height="12" /><rect fill="#ffffff" opacity="0.5" x="53.2" y="70" width="5" height="6" /><rect fill="#ffffff" opacity="0.5" x="48" y="32" width="11" height="6" /><rect fill="#ffffff" opacity="0.5" x="67" y="55" width="5" height="12" /><rect fill="#ffffff" opacity="0.5" x="54" y="38" width="11" height="8" /><rect fill="#ffffff" opacity="0.5" x="30" y="42" width="11" height="4" /><rect fill="#ffffff" opacity="0.5" x="52.333333333333336" y="37.833333333333336" width="13" height="8" /><rect fill="#ffffff" opacity="0.5" x="45.6" y="68" width="11" height="10" /><rect fill="#ffffff" opacity="0.5" x="59.028571428571425" y="67.71428571428572" width="5" height="5" /><rect fill="#ffffff" opacity="0.5" x="30" y="46" width="9" height="8" /><rect fill="#ffffff" opacity="0.5" x="55.645714285714284" y="68.74285714285715" width="11" height="5" /><rect fill="#ffffff" opacity="0.5" x="31" y="50" width="13" height="12" /><rect fill="#ffffff" opacity="0.5" x="66.5" y="58.5" width="11" height="11" /><rect fill="#ffffff" opacity="0.5" x="56.97904761904762" y="67.40952380952382" width="12" height="10" /><rect fill="#ffffff" opacity="0.5" x="62.91666666666667" y="53.083333333333336" width="8" height="5" /><rect fill="#ffffff" opacity="0.5" x="48" y="32" width="4" height="9" /><rect fill="#ffffff" opacity="0.5" x="63.97222222222222" y="52.69444444444444" width="9" height="10" /><rect fill="#ffffff" opacity="0.5" x="33.9" y="62.5" width="12" height="14" /><rect fill="#ffffff" opacity="0.5" x="54.07555555555555" y="67.97777777777777" width="14" height="4" /><rect fill="#ffffff" opacity="0.5" x="62.73275132275133" y="59.066931216931216" width="6" height="13" /><rect fill="#ffffff" opacity="0.5" x="30.816666666666666" y="56.75" width="12" height="5" /><rect fill="#ffffff" opacity="0.5" x="49.666666666666664" y="33.96666666666667" width="6" height="12" /><rect fill="#ffffff" opacity="0.5" x="30" y="44" width="11" height="4" /><rect fill="#ffffff" opacity="0.5" x="50.4" y="34.760000000000005" width="14" height="8" /><rect fill="#ffffff" opacity="0.5" x="55.32309145880575" y="66.98733938019652" width="5" height="8" /><rect fill="#ffffff" opacity="0.5" x="62.73166288737717" y="53.04924414210129" width="12" height="8" /><rect fill="#ffffff" opacity="0.5" x="31.143333333333334" y="58.65" width="10" height="6" /><rect fill="#ffffff" opacity="0.5" x="31.465" y="59.975" width="5" height="4" /><rect fill="#ffffff" opacity="0.5" x="58.992314184933235" y="46.94339254220207" width="9" height="6" /><rect fill="#ffffff" opacity="0.5" x="31.83125" y="59.46875" width="13" height="13" /></svg>