<svg width="100" height="100"><rect width="100" height="100" fill="#000000" /><rect fill="#ffffff" opacity="0.5" x="81.03161310699511" y="40.84137873984457" width="9" height="12" /><rect fill="#ffffff" opacity="0.5" x="40.15652221256925" y="75.26150663807005" width="4" height="7" /><rect fill="#ffffff" opacity="0.5" x="28.87520983915388" y="55.073500952871164" width="13" height="5" /><rect fill="#ffffff" opacity="0.5" x="55.34302388434337" y="41.226186364838824" width="6" height="9" /><rect fill="#ffffff" opacity="0.5" x="53.86188117165206" y="81.89660621571028" width="10" height="11" /><rect fill="#ffffff" opacity="0.5" x="53.49657268965699" y="54.9539879806284" width="11" height="4" /><rect fill="#ffffff" opacity="0.5" x="62.92896352573195" y="16.033607661435575" width="14" height="12" /><rect fill="#ffffff" opacity="0.5" x="40.74626450649342" y="60.585305870225596" width="13" height="11" /><rect fill="#ffffff" opacity="0.5" x="63.4799595136809" y="61.08606027983619" width="14" height="10" /><rect fill="#ffffff" opacity="0.5" x="33.420268772141604" y="35.94991326367617" width="7" height="5" /><rect fill="#ffffff" opacity="0.5" x="43.83830103732213" y="23.778062699704993" width="12" height="10" /><rect fill="#ffffff" opacity="0.5" x="53.733907604046465" y="72.63276297606227" width="7" height="4" /><rect fill="#ffffff" opacity="0.5" x="79.66810966562934" y="60.45384007007371" width="11" height="13" /><rect fill="#ffffff" opacity="0.5" x="55.34186525062281" y="30.981175819636668" width="12" height="6" /><rect fill="#ffffff" opacity="0.5" x="41.91058621105514" y="38.77945841239195" width="9" height="4" /><rect fill="#ffffff" opacity="0.5" x="26.2393200229803" y="66.62881124487897" width="5" height="6" /><rect fill="#ffffff" opacity="0.5" x="46.574156792220556" y="46.75439808630773" width="4" height="11" /><rect fill="#ffffff" opacity="0.5" x="23.94024276055103" y="40.96446632517274" width="5" height="13" /><rect fill="#ffffff" opacity="0.5" x="69.67916037529412" y="45.75856744955865" width="7" height="13" /><rect fill="#ffffff" opacity="0.5" x="64.04704321372441" y="75.38141845012966" width="13" height="10" /></svg>